C:\Users\menth\Documents\Programmas\PredSimResults\H0918v3\H0918v3_v1.mot
version=1
nRows=18
nColumns=28
inDegrees=yes
endheader
                time	         pelvis_tilt	           pelvis_tx	           pelvis_ty	       hip_flexion_r	        knee_angle_r	       ankle_angle_r	       hip_flexion_l	        knee_angle_l	       ankle_angle_l	hamstrings_r/activation	bifemsh_r/activation	glut_max_r/activation	iliopsoas_r/activation	rect_fem_r/activation	  vasti_r/activation	gastroc_r/activation	 soleus_r/activation	tib_ant_r/activation	hamstrings_l/activation	bifemsh_l/activation	glut_max_l/activation	iliopsoas_l/activation	rect_fem_l/activation	  vasti_l/activation	gastroc_l/activation	 soleus_l/activation	tib_ant_l/activation	
          0.00000000	         -8.57807434	          0.00000000	          0.90748842	         30.73026607	        -14.22631301	         -3.70954619	        -12.10010708	         -9.42517852	         -4.72571387	          0.07807737	          0.04999999	          0.10137882	          0.04999999	          0.07096076	          0.06932065	          0.21893277	          0.13178479	          0.54681786	          0.04999999	          0.09260970	          0.04999999	          0.52233630	          0.05345813	          0.04999999	          0.56172407	          0.51085533	          0.04999999	
          0.01147850	         -8.44658636	          0.01551743	          0.90626149	         30.11827802	        -14.25803347	         -4.09189613	        -11.77922373	        -11.91121498	         -5.62846421	          0.07356057	          0.04999999	          0.13860913	          0.04999999	          0.05956541	          0.10045384	          0.19333418	          0.11062190	          0.67042092	          0.04999999	          0.07773781	          0.04999999	          0.43845601	          0.04999999	          0.04999999	          0.50076891	          0.47369910	          0.04999999	
          0.02295700	         -8.29039951	          0.03134763	          0.90498267	         29.47816784	        -15.06202571	         -3.98832863	        -11.21456900	        -14.85781620	         -6.78766459	          0.07192537	          0.04999999	          0.19453557	          0.04999999	          0.04999999	          0.08432228	          0.22488067	          0.15705865	          0.61025409	          0.04999999	          0.06525415	          0.04999999	          0.36804579	          0.04999999	          0.04999999	          0.42035206	          0.39762930	          0.04999999	
          0.03443550	         -8.12450363	          0.04730370	          0.90377515	         28.86218355	        -16.25648537	         -3.05648900	        -10.37523574	        -18.22680199	         -8.36513881	          0.08541503	          0.05344483	          0.26081027	          0.04999999	          0.04999999	          0.15556713	          0.23374739	          0.18740472	          0.51225537	          0.06762067	          0.05477520	          0.14568538	          0.30894251	          0.04999999	          0.04999999	          0.35284909	          0.33377531	          0.04999999	
          0.04591400	         -7.96925470	          0.06311849	          0.90294413	         28.32316643	        -17.59224759	         -1.58686299	         -9.25355316	        -21.90221597	        -10.53680632	          0.09944896	          0.04999999	          0.31699140	          0.04999999	          0.04999999	          0.26048630	          0.25438847	          0.23095289	          0.42999395	          0.08072284	          0.04999999	          0.12229024	          0.25933044	          0.04999999	          0.04999999	          0.29618620	          0.28017542	          0.25358268	
          0.05739250	         -7.84165282	          0.07857399	          0.90264088	         27.80144370	        -18.84141195	         -0.22113830	         -7.87910499	        -25.75696332	        -13.24889669	          0.10582284	          0.04999999	          0.34316792	          0.04999999	          0.04999999	          0.34647692	          0.27723962	          0.27834009	          0.36094262	          0.09041449	          0.04999999	          0.10265205	          0.21768541	          0.04999999	          0.04999999	          0.24862262	          0.23518296	          0.35793575	
          0.06887100	         -7.74660011	          0.09358360	          0.90281409	         27.18905006	        -19.79003923	          0.95291178	         -6.39814836	        -29.48582740	        -15.49566619	          0.10938710	          0.04999999	          0.33456133	          0.04999999	          0.04999999	          0.39546140	          0.30016270	          0.32250331	          0.30298002	          0.08779750	          0.07284511	          0.08616749	          0.18272802	          0.04999999	          0.04999999	          0.21285487	          0.19741569	          0.30045601	
          0.08034950	         -7.68198127	          0.10815127	          0.90349678	         26.44035268	        -20.36392423	          1.90914834	         -4.94445168	        -32.77120911	        -15.70396445	          0.11295816	          0.07096076	          0.30059188	          0.04999999	          0.04999999	          0.39627493	          0.32214375	          0.36118718	          0.25432544	          0.10584021	          0.12563644	          0.07233013	          0.15338432	          0.04999999	          0.04999999	          0.17867320	          0.16571335	          0.39246482	
          0.09182800	         -7.64407095	          0.12231048	          0.90476163	         25.57331691	        -20.60348296	          2.62176359	         -3.53472799	        -35.51855386	        -15.36408677	          0.11718683	          0.05956540	          0.26315126	          0.04999999	          0.04999999	          0.37633291	          0.34385456	          0.39509516	          0.21348415	          0.11797468	          0.18009197	          0.06071487	          0.12933168	          0.04999999	          0.04999999	          0.14998065	          0.13910198	          0.40007135	
          0.10330650	         -7.62944412	          0.13609405	          0.90655527	         24.61504168	        -20.56507855	          3.09251454	         -2.16527417	        -37.76392094	        -14.73312854	          0.12188778	          0.04999999	          0.23289226	          0.04999999	          0.04999999	          0.34154158	          0.36435451	          0.42248928	          0.17920142	          0.12019436	          0.22408400	          0.05096487	          0.11810593	          0.04999999	          0.04999999	          0.12589575	          0.11676405	          0.38288889	
          0.11478500	         -7.63454077	          0.14953753	          0.90876960	         23.58732548	        -20.29958986	          3.34649900	         -0.82805783	        -39.56649207	        -13.91502001	          0.12684676	          0.04999999	          0.21376526	          0.04999999	          0.04999999	          0.29947580	          0.38360537	          0.44363877	          0.15042405	          0.10089274	          0.27374529	          0.04999999	          0.11060008	          0.04999999	          0.04999999	          0.10567856	          0.09801329	          0.36149957	
          0.12626350	         -7.65659689	          0.16266992	          0.91127824	         22.51390949	        -19.86049436	          3.41724413	          0.48663870	        -40.98616377	        -12.97214796	          0.13139127	          0.04999999	          0.20389667	          0.04999999	          0.04999999	          0.25517967	          0.40164459	          0.45903408	          0.12626794	          0.08469070	          0.32291018	          0.04999999	          0.10524863	          0.04999999	          0.04999999	          0.08870798	          0.08227365	          0.33594565	
          0.13774200	         -7.69340229	          0.17551338	          0.91395803	         21.41777046	        -19.29868240	          3.34032556	          1.79041805	        -42.08305441	        -11.92966699	          0.13515128	          0.04999999	          0.19806321	          0.04999999	          0.04999999	          0.21420120	          0.41827700	          0.46941038	          0.10599098	          0.07109050	          0.37390290	          0.04999999	          0.10057033	          0.04999999	          0.04999999	          0.07446266	          0.06906159	          0.31347642	
          0.14922050	         -7.74303063	          0.18808519	          0.91670009	         20.31829046	        -18.65774020	          3.15037461	          3.09667237	        -42.91996382	        -10.81522367	          0.13788921	          0.04999999	          0.19246063	          0.04999999	          0.04999999	          0.17980332	          0.43318764	          0.47551157	          0.08897023	          0.05967431	          0.42386988	          0.04999999	          0.09618892	          0.04999999	          0.04999999	          0.06250494	          0.05797122	          0.28678380	
          0.16069900	         -7.80395851	          0.20039904	          0.91941458	         19.22962460	        -17.97076419	          2.87927112	          4.41915197	        -43.55716600	         -9.67509557	          0.13940263	          0.04999999	          0.18574000	          0.04999999	          0.04999999	          0.15092929	          0.44608942	          0.47800900	          0.07468279	          0.05009140	          0.47122670	          0.04999999	          0.09230727	          0.04999999	          0.04999999	          0.05278755	          0.04999999	          0.26399114	
          0.17217750	         -7.87500151	          0.21246637	          0.92203007	         18.16234942	        -17.26372270	          2.55604885	          5.77080135	        -44.04952355	         -8.58580689	          0.13966102	          0.04999999	          0.17769945	          0.04999999	          0.04999999	          0.12669205	          0.45686368	          0.47750625	          0.06268973	          0.04999999	          0.51703101	          0.04999999	          0.08898516	          0.04999999	          0.04999999	          0.04999999	          0.04999999	          0.27093385	
          0.18365600	         -7.95429376	          0.22430192	          0.92449075	         17.12366250	        -16.55841286	          2.20719306	          7.16186373	        -44.45245116	         -7.60931680	          0.13882147	          0.04999999	          0.17106431	          0.04999999	          0.04999999	          0.10634699	          0.46573720	          0.47475784	          0.05262259	          0.04999999	          0.55607566	          0.04999999	          0.08675188	          0.06007046	          0.04999999	          0.04999999	          0.04999999	          0.26960393	
          0.19513450	         -8.03980647	          0.23592289	          0.92675632	         16.11795092	        -15.87208025	          1.85567263	          8.59756582	        -44.81219546	         -6.70910105	          0.13668844	          0.04999999	          0.16484647	          0.04999999	          0.04999999	          0.09610512	          0.47326687	          0.47060116	          0.04999999	          0.04999999	          0.58750490	          0.04999999	          0.08660149	          0.07684887	          0.04999999	          0.04999999	          0.04999999	          0.27235610	
